{
  "source": "C:\\Users\\Peter\\Desktop\\stuff\\MIUN\\quantitative_research\\video_compression\\videos\\BVI-HD\\RockWater_1920x1080_30fps.mp4",
  "output": "C:\\Users\\Peter\\Desktop\\stuff\\MIUN\\quantitative_research\\video_compression\\compressed_videos\\BVI-HD\\av1\\3\\RockWater_1920x1080_30fps_av1.mkv",
  "codec": "av1",
  "ok": "Input #0, mov,mp4,m4a,3gp,3g2,mj2, from 'C:\\Users\\Peter\\Desktop\\stuff\\MIUN\\quantitative_research\\video_compression\\videos\\BVI-HD\\RockWater_1920x1080_30fps.mp4':\n  Metadata:\n    major_brand     : isom\n    minor_version   : 512\n    compatible_brands: isomiso2avc1mp41\n    encoder         : Lavf54.28.101\n  Duration: 00:00:05.00, start: 0.000000, bitrate: 245943 kb/s\n  Stream #0:0[0x1](und): Video: h264 (High 4:4:4 Predictive) (avc1 / 0x31637661), yuv420p(progressive), 1920x1080, 245940 kb/s, 30 fps, 30 tbr, 30 tbn (default)\n    Metadata:\n      handler_name    : VideoHandler\n      vendor_id       : [0][0][0][0]\n[out#0/matroska @ 000002bbc1ba0d00] Codec AVOption b:a (set bitrate (in bits/s)) has not been used for any stream. The most likely reason is either wrong type (e.g. a video option with no video streams) or that it is a private option of some decoder which was not actually used for any stream.\nStream mapping:\n  Stream #0:0 -> #0:0 (h264 (native) -> av1 (libsvtav1))\nPress [q] to stop, [?] for help\nSvt[info]: -------------------------------------------\nSvt[info]: SVT [version]:\tSVT-AV1 Encoder Lib v3.1.0-19-g6ecfe8ec\nSvt[info]: SVT [build]  :\tGCC 15.2.0\t 64 bit\nSvt[info]: LIB Build date: Aug 17 2025 11:37:13\nSvt[info]: -------------------------------------------\nSvt[info]: Level of Parallelism: 5\nSvt[info]: Number of PPCS 93\nSvt[info]: [asm level on system : up to avx2]\nSvt[info]: [asm level selected : up to avx2]\nSvt[info]: -------------------------------------------\nSvt[info]: SVT [config]: main profile\ttier (auto)\tlevel (auto)\nSvt[info]: SVT [config]: width / height / fps numerator / fps denominator \t\t: 1920 / 1080 / 30 / 1\nSvt[info]: SVT [config]: bit-depth / color format \t\t\t\t\t: 8 / YUV420\nSvt[info]: SVT [config]: preset / tune / pred struct \t\t\t\t\t: 4 / PSNR / random access\nSvt[info]: SVT [config]: gop size / mini-gop size / key-frame type \t\t\t: 161 / 16 / key frame\nSvt[info]: SVT [config]: BRC mode / target bitrate (kbps)\t\t\t\t: VBR / 3000 \nSvt[info]: SVT [config]: AQ mode / Variance Boost \t\t\t\t\t: 2 / 0\nSvt[info]: SVT [config]: sharpness / luminance-based QP bias \t\t\t\t: 0 / 0\nSvt[info]: SVT [config]: QP scale compress strength \t\t\t\t\t: 0\nSvt[info]: -------------------------------------------\nOutput #0, matroska, to 'C:\\Users\\Peter\\Desktop\\stuff\\MIUN\\quantitative_research\\video_compression\\compressed_videos\\BVI-HD\\av1\\3\\RockWater_1920x1080_30fps_av1.mkv':\n  Metadata:\n    major_brand     : isom\n    minor_version   : 512\n    compatible_brands: isomiso2avc1mp41\n    encoder         : Lavf62.3.100\n  Stream #0:0(und): Video: av1 (AV01 / 0x31305641), yuv420p(tv, progressive), 1920x1080, q=2-31, 3000 kb/s, 30 fps, 1k tbn (default)\n    Metadata:\n      encoder         : Lavc62.11.100 libsvtav1\n      handler_name    : VideoHandler\n      vendor_id       : [0][0][0][0]\n    Side data:\n      cpb: bitrate max/min/avg: 0/0/3000000 buffer size: 3000000 vbv_delay: N/A\nframe=    0 fps=0.0 q=0.0 size=       0KiB time=N/A bitrate=N/A speed=N/A elapsed=0:00:00.51    \nframe=    0 fps=0.0 q=0.0 size=       0KiB time=N/A bitrate=N/A speed=N/A elapsed=0:00:01.04    \nframe=    0 fps=0.0 q=0.0 size=       0KiB time=N/A bitrate=N/A speed=N/A elapsed=0:00:01.56    \nframe=    0 fps=0.0 q=0.0 size=       0KiB time=N/A bitrate=N/A speed=N/A elapsed=0:00:02.10    \nframe=    1 fps=0.4 q=30.0 size=       1KiB time=00:00:00.00 bitrate=N/A speed=   0x elapsed=0:00:02.69    \nframe=    1 fps=0.3 q=30.0 size=       1KiB time=00:00:00.00 bitrate=N/A speed=   0x elapsed=0:00:03.21    \nframe=    2 fps=0.5 q=43.0 size=       1KiB time=00:00:00.03 bitrate= 171.1kbits/s speed=0.00896x elapsed=0:00:03.72    \nframe=    6 fps=1.4 q=43.0 size=       1KiB time=00:00:00.16 bitrate=  34.2kbits/s speed=0.0394x elapsed=0:00:04.23    \nframe=    8 fps=1.7 q=43.0 size=       1KiB time=00:00:00.23 bitrate=  24.4kbits/s speed=0.0491x elapsed=0:00:04.75    \nframe=   11 fps=2.1 q=39.0 size=       1KiB time=00:00:00.33 bitrate=  17.1kbits/s speed=0.0632x elapsed=0:00:05.27    \nframe=   17 fps=2.9 q=32.0 size=       1KiB time=00:00:00.53 bitrate=  10.7kbits/s speed=0.0922x elapsed=0:00:05.78    \nframe=   21 fps=3.3 q=40.0 size=       1KiB time=00:00:00.66 bitrate=   8.6kbits/s speed=0.106x elapsed=0:00:06.29    \nframe=   23 fps=3.4 q=42.0 size=       1KiB time=00:00:00.73 bitrate=   7.8kbits/s speed=0.107x elapsed=0:00:06.82    \nframe=   28 fps=3.8 q=45.0 size=       1KiB time=00:00:00.90 bitrate=   6.3kbits/s speed=0.122x elapsed=0:00:07.35    \nframe=   34 fps=4.3 q=45.0 size=       1KiB time=00:00:01.10 bitrate=   5.2kbits/s speed=0.14x elapsed=0:00:07.86    \nframe=   38 fps=4.5 q=45.0 size=       1KiB time=00:00:01.23 bitrate=   4.6kbits/s speed=0.147x elapsed=0:00:08.38    \nframe=   40 fps=4.5 q=45.0 size=       1KiB time=00:00:01.30 bitrate=   4.4kbits/s speed=0.146x elapsed=0:00:08.89    \nframe=   45 fps=4.8 q=38.0 size=       1KiB time=00:00:01.46 bitrate=   3.9kbits/s speed=0.156x elapsed=0:00:09.41    \nframe=   50 fps=5.0 q=47.0 size=       1KiB time=00:00:01.63 bitrate=   3.5kbits/s speed=0.165x elapsed=0:00:09.92    \nframe=   55 fps=5.3 q=44.0 size=       1KiB time=00:00:01.80 bitrate=   3.2kbits/s speed=0.172x elapsed=0:00:10.44    \nframe=   57 fps=5.2 q=37.0 size=       1KiB time=00:00:01.86 bitrate=   3.1kbits/s speed=0.17x elapsed=0:00:10.95    \nframe=   61 fps=5.3 q=41.0 size=       1KiB time=00:00:02.00 bitrate=   2.9kbits/s speed=0.174x elapsed=0:00:11.48    \nframe=   65 fps=5.4 q=30.0 size=       1KiB time=00:00:02.13 bitrate=   2.7kbits/s speed=0.178x elapsed=0:00:11.98    \nframe=   69 fps=5.5 q=42.0 size=       1KiB time=00:00:02.26 bitrate=   2.5kbits/s speed=0.181x elapsed=0:00:12.50    \nframe=   73 fps=5.6 q=40.0 size=       1KiB time=00:00:02.40 bitrate=   2.4kbits/s speed=0.184x elapsed=0:00:13.02    \nframe=   73 fps=5.4 q=40.0 size=       1KiB time=00:00:02.40 bitrate=   2.4kbits/s speed=0.177x elapsed=0:00:13.55    \nframe=   77 fps=5.5 q=42.0 size=       1KiB time=00:00:02.53 bitrate=   2.3kbits/s speed=0.18x elapsed=0:00:14.06    \nframe=   81 fps=5.6 q=33.0 size=       1KiB time=00:00:02.66 bitrate=   2.1kbits/s speed=0.183x elapsed=0:00:14.58    \nframe=   85 fps=5.6 q=47.0 size=       1KiB time=00:00:02.80 bitrate=   2.0kbits/s speed=0.185x elapsed=0:00:15.09    \nframe=   89 fps=5.7 q=42.0 size=       1KiB time=00:00:02.93 bitrate=   1.9kbits/s speed=0.188x elapsed=0:00:15.61    \nframe=   89 fps=5.5 q=42.0 size=       1KiB time=00:00:02.93 bitrate=   1.9kbits/s speed=0.182x elapsed=0:00:16.12    \nframe=   93 fps=5.6 q=45.0 size=       1KiB time=00:00:03.06 bitrate=   1.9kbits/s speed=0.184x elapsed=0:00:16.64    \nframe=   97 fps=5.7 q=36.0 size=       1KiB time=00:00:03.20 bitrate=   1.8kbits/s speed=0.187x elapsed=0:00:17.15    \nframe=   99 fps=5.6 q=46.0 size=       1KiB time=00:00:03.26 bitrate=   1.7kbits/s speed=0.185x elapsed=0:00:17.67    \nframe=  103 fps=5.7 q=46.0 size=       1KiB time=00:00:03.40 bitrate=   1.7kbits/s speed=0.187x elapsed=0:00:18.18    \nframe=  105 fps=5.6 q=45.0 size=       1KiB time=00:00:03.46 bitrate=   1.6kbits/s speed=0.185x elapsed=0:00:18.70    \nframe=  105 fps=5.5 q=45.0 size=       1KiB time=00:00:03.46 bitrate=   1.6kbits/s speed=0.18x elapsed=0:00:19.21    \nframe=  109 fps=5.5 q=43.0 size=       1KiB time=00:00:03.60 bitrate=   1.6kbits/s speed=0.182x elapsed=0:00:19.73    \nframe=  113 fps=5.6 q=38.0 size=       1KiB time=00:00:03.73 bitrate=   1.5kbits/s speed=0.184x elapsed=0:00:20.26    \nframe=  117 fps=5.6 q=42.0 size=       1KiB time=00:00:03.86 bitrate=   1.5kbits/s speed=0.186x elapsed=0:00:20.76    \nframe=  119 fps=5.6 q=45.0 size=       1KiB time=00:00:03.93 bitrate=   1.5kbits/s speed=0.185x elapsed=0:00:21.28    \nframe=  121 fps=5.6 q=43.0 size=       1KiB time=00:00:04.00 bitrate=   1.4kbits/s speed=0.184x elapsed=0:00:21.79    \nframe=  123 fps=5.5 q=46.0 size=       1KiB time=00:00:04.06 bitrate=   1.4kbits/s speed=0.182x elapsed=0:00:22.31    \nframe=  125 fps=5.5 q=44.0 size=       1KiB time=00:00:04.13 bitrate=   1.4kbits/s speed=0.181x elapsed=0:00:22.83    \nframe=  129 fps=5.5 q=36.0 size=       1KiB time=00:00:04.26 bitrate=   1.3kbits/s speed=0.183x elapsed=0:00:23.34    \nframe=  133 fps=5.6 q=47.0 size=       1KiB time=00:00:04.40 bitrate=   1.3kbits/s speed=0.184x elapsed=0:00:23.86    \nframe=  137 fps=5.6 q=44.0 size=       1KiB time=00:00:04.53 bitrate=   1.3kbits/s speed=0.186x elapsed=0:00:24.37    \nframe=  139 fps=5.6 q=47.0 size=       1KiB time=00:00:04.60 bitrate=   1.2kbits/s speed=0.185x elapsed=0:00:24.89    \nframe=  141 fps=5.5 q=47.0 size=       1KiB time=00:00:04.66 bitrate=   1.2kbits/s speed=0.184x elapsed=0:00:25.40    \n[out#0/matroska @ 000002bbc1ba0d00] video:1968KiB audio:0KiB subtitle:0KiB other streams:0KiB global headers:0KiB muxing overhead: 0.072852%\nframe=  150 fps=5.8 q=47.0 Lsize=    1969KiB time=00:00:04.96 bitrate=3248.1kbits/s speed=0.193x elapsed=0:00:25.70    \n",
  "seconds": 26.07481813430786,
  "probe_out": {}
}